<svg xmlns="http://www.w3.org/2000/svg" viewBox="0 0 64 64" width="64" height="64">
  <defs>
    <linearGradient id="qwenGradient" x1="0%" y1="0%" x2="100%" y2="100%">
      <stop offset="0%" style="stop-color:#4F46E5"/>
      <stop offset="50%" style="stop-color:#7C3AED"/>
      <stop offset="100%" style="stop-color:#A855F7"/>
    </linearGradient>
    <linearGradient id="qwenInner" x1="0%" y1="0%" x2="100%" y2="100%">
      <stop offset="0%" style="stop-color:#818CF8"/>
      <stop offset="100%" style="stop-color:#C084FC"/>
    </linearGradient>
  </defs>
  
  <!-- Background circle -->
  <circle cx="32" cy="32" r="30" fill="url(#qwenGradient)"/>
  
  <!-- Q letter stylized -->
  <g fill="url(#qwenInner)">
    <!-- Main Q body -->
    <path d="M32 14 C22 14 16 22 16 32 C16 42 22 50 32 50 C38 50 43 47 46 42 L52 48 C47 55 40 58 32 58 C20 58 12 50 12 32 C12 14 20 6 32 6 C40 6 47 9 52 16 L46 22 C43 18 38 14 32 14 Z"/>
  </g>
  
  <!-- Q tail -->
  <g fill="#E9D5FF">
    <ellipse cx="44" cy="46" rx="6" ry="4" transform="rotate(45 44 46)"/>
  </g>
  
  <!-- Subtle highlight -->
  <ellipse cx="24" cy="24" rx="8" ry="6" fill="white" opacity="0.15"/>
</svg>